HIERARCHY
ROOT Hips
{
  OFFSET 5.84602e-005 68.8428 3.50346
  CHANNELS 6 Xposition Yposition Zposition Zrotation Xrotation Yrotation
  JOINT Spine
  {
    OFFSET 0 8.597 -4.6522
    CHANNELS 3 Zrotation Xrotation Yrotation
    JOINT Spine1
    {
      OFFSET 0 7.8454 0.4098
      CHANNELS 3 Zrotation Xrotation Yrotation
      JOINT Spine2
      {
        OFFSET 0 9.7078 -2.1609
        CHANNELS 3 Zrotation Xrotation Yrotation
        JOINT Neck
        {
          OFFSET 0 21.8761 -0.4549
          CHANNELS 3 Zrotation Xrotation Yrotation
          JOINT Head
          {
            OFFSET 0 12.3537 3.3602
            CHANNELS 3 Zrotation Xrotation Yrotation
            End Site
            {
              OFFSET 0.0001 18.9506 0.5657
            }
          }
        }
        JOINT LeftShoulder
        {
          OFFSET 2.2086 21.1115 7.2329
          CHANNELS 3 Zrotation Xrotation Yrotation
          JOINT LeftArm
          {
            OFFSET 13.1193 3.0282 -4.8998
            CHANNELS 3 Zrotation Xrotation Yrotation
            JOINT LeftForeArm
            {
              OFFSET 27.4081 -0.0973053 -0.2375
              CHANNELS 3 Zrotation Xrotation Yrotation
              JOINT LeftHand
              {
                OFFSET 22.8641 0.0662994 -0.1369
                CHANNELS 3 Zrotation Xrotation Yrotation
                JOINT LeftHandIndex1
                {
                  OFFSET 8.8614 0.775009 2.4612
                  CHANNELS 3 Zrotation Xrotation Yrotation
                  JOINT LeftHandIndex2
                  {
                    OFFSET 3.3146 -0.808304 0.5841
                    CHANNELS 3 Zrotation Xrotation Yrotation
                    JOINT LeftHandIndex3
                    {
                      OFFSET 2.2628 -0.552002 0.3989
                      CHANNELS 3 Zrotation Xrotation Yrotation
                      End Site
                      {
                        OFFSET 1.6102 -0.4807 0.2612
                      }
                    }
                  }
                }
                JOINT LeftHandMiddle1
                {
                  OFFSET 8.9937 0.895004 0.2143
                  CHANNELS 3 Zrotation Xrotation Yrotation
                  JOINT LeftHandMiddle2
                  {
                    OFFSET 4.0984 0.0113983 -0.0242
                    CHANNELS 3 Zrotation Xrotation Yrotation
                    JOINT LeftHandMiddle3
                    {
                      OFFSET 2.2716 0.00689697 -0.0138001
                      CHANNELS 3 Zrotation Xrotation Yrotation
                      End Site
                      {
                        OFFSET 2.0404 -0.1441 0.0027
                      }
                    }
                  }
                }
                JOINT LeftHandRing1
                {
                  OFFSET 8.5234 0.597198 -2.0164
                  CHANNELS 3 Zrotation Xrotation Yrotation
                  JOINT LeftHandRing2
                  {
                    OFFSET 3.7188 -0.188293 -0.2328
                    CHANNELS 3 Zrotation Xrotation Yrotation
                    JOINT LeftHandRing3
                    {
                      OFFSET 2.1191 -0.106598 -0.1332
                      CHANNELS 3 Zrotation Xrotation Yrotation
                      End Site
                      {
                        OFFSET 1.8737 -0.2304 -0.0886
                      }
                    }
                  }
                }
                JOINT LeftHandPinky1
                {
                  OFFSET 7.9094 -0.601089 -3.4825
                  CHANNELS 3 Zrotation Xrotation Yrotation
                  JOINT LeftHandPinky2
                  {
                    OFFSET 2.2874 -0.477005 -0.6314
                    CHANNELS 3 Zrotation Xrotation Yrotation
                    JOINT LeftHandPinky3
                    {
                      OFFSET 1.6774 -0.349396 -0.4633
                      CHANNELS 3 Zrotation Xrotation Yrotation
                      End Site
                      {
                        OFFSET 1.4888 -0.4091 -0.3416
                      }
                    }
                  }
                }
                JOINT LeftHandThumb1
                {
                  OFFSET 1.833 -1.3875 1.3896
                  CHANNELS 3 Zrotation Xrotation Yrotation
                  JOINT LeftHandThumb2
                  {
                    OFFSET 3.4129 -1.121 2.5732
                    CHANNELS 3 Zrotation Xrotation Yrotation
                    JOINT LeftHandThumb3
                    {
                      OFFSET 2.2474 -0.804199 1.6192
                      CHANNELS 3 Zrotation Xrotation Yrotation
                      End Site
                      {
                        OFFSET 1.6527 -0.5689 1.1317
                      }
                    }
                  }
                }
              }
            }
          }
        }
        JOINT RightShoulder
        {
          OFFSET -2.2086 21.1115 7.2329
          CHANNELS 3 Zrotation Xrotation Yrotation
          JOINT RightArm
          {
            OFFSET -13.1216 3.0287 -4.9007
            CHANNELS 3 Zrotation Xrotation Yrotation
            JOINT RightForeArm
            {
              OFFSET -27.4081 -0.0973053 -0.2375
              CHANNELS 3 Zrotation Xrotation Yrotation
              JOINT RightHand
              {
                OFFSET -22.8641 0.0664063 -0.1369
                CHANNELS 3 Zrotation Xrotation Yrotation
                JOINT RightHandIndex1
                {
                  OFFSET -8.8614 0.774994 2.4612
                  CHANNELS 3 Zrotation Xrotation Yrotation
                  JOINT RightHandIndex2
                  {
                    OFFSET -3.3146 -0.808304 0.5841
                    CHANNELS 3 Zrotation Xrotation Yrotation
                    JOINT RightHandIndex3
                    {
                      OFFSET -2.2628 -0.552002 0.3989
                      CHANNELS 3 Zrotation Xrotation Yrotation
                      End Site
                      {
                        OFFSET -1.6102 -0.4807 0.2612
                      }
                    }
                  }
                }
                JOINT RightHandMiddle1
                {
                  OFFSET -8.9937 0.894989 0.2143
                  CHANNELS 3 Zrotation Xrotation Yrotation
                  JOINT RightHandMiddle2
                  {
                    OFFSET -4.0984 0.0113983 -0.0242
                    CHANNELS 3 Zrotation Xrotation Yrotation
                    JOINT RightHandMiddle3
                    {
                      OFFSET -2.2716 0.00691223 -0.0138001
                      CHANNELS 3 Zrotation Xrotation Yrotation
                      End Site
                      {
                        OFFSET -2.0404 -0.1441 0.0027
                      }
                    }
                  }
                }
                JOINT RightHandRing1
                {
                  OFFSET -8.5234 0.597198 -2.0164
                  CHANNELS 3 Zrotation Xrotation Yrotation
                  JOINT RightHandRing2
                  {
                    OFFSET -3.7188 -0.188309 -0.2328
                    CHANNELS 3 Zrotation Xrotation Yrotation
                    JOINT RightHandRing3
                    {
                      OFFSET -2.1191 -0.106598 -0.1332
                      CHANNELS 3 Zrotation Xrotation Yrotation
                      End Site
                      {
                        OFFSET -1.8737 -0.2304 -0.0886
                      }
                    }
                  }
                }
                JOINT RightHandPinky1
                {
                  OFFSET -7.9094 -0.601105 -3.4825
                  CHANNELS 3 Zrotation Xrotation Yrotation
                  JOINT RightHandPinky2
                  {
                    OFFSET -2.2874 -0.477005 -0.6314
                    CHANNELS 3 Zrotation Xrotation Yrotation
                    JOINT RightHandPinky3
                    {
                      OFFSET -1.6774 -0.349396 -0.4633
                      CHANNELS 3 Zrotation Xrotation Yrotation
                      End Site
                      {
                        OFFSET -1.4888 -0.4091 -0.3416
                      }
                    }
                  }
                }
                JOINT RightHandThumb1
                {
                  OFFSET -1.833 -1.38751 1.3896
                  CHANNELS 3 Zrotation Xrotation Yrotation
                  JOINT RightHandThumb2
                  {
                    OFFSET -3.41299 -1.12099 2.5732
                    CHANNELS 3 Zrotation Xrotation Yrotation
                    JOINT RightHandThumb3
                    {
                      OFFSET -2.24741 -0.804108 1.6192
                      CHANNELS 3 Zrotation Xrotation Yrotation
                      End Site
                      {
                        OFFSET -1.6527 -0.5689 1.1317
                      }
                    }
                  }
                }
              }
            }
          }
        }
      }
    }
  }
  JOINT RightUpLeg
  {
    OFFSET -9.1966 3.8861 -0.7581
    CHANNELS 3 Zrotation Xrotation Yrotation
    JOINT RightLeg
    {
      OFFSET -0.7359 -41.0265 0
      CHANNELS 3 Zrotation Xrotation Yrotation
      JOINT RightFoot
      {
        OFFSET 0 -40.2855 0
        CHANNELS 3 Zrotation Xrotation Yrotation
        JOINT RightToeBase
        {
          OFFSET 0 -5.6122 11.7359
          CHANNELS 3 Zrotation Xrotation Yrotation
          End Site
          {
            OFFSET 0 0 7.8731
          }
        }
      }
    }
  }
  JOINT LeftUpLeg
  {
    OFFSET 9.1965 3.8864 -0.7581
    CHANNELS 3 Zrotation Xrotation Yrotation
    JOINT LeftLeg
    {
      OFFSET 0.7359 -41.0268 0
      CHANNELS 3 Zrotation Xrotation Yrotation
      JOINT LeftFoot
      {
        OFFSET 0 -40.2855 0
        CHANNELS 3 Zrotation Xrotation Yrotation
        JOINT LeftToeBase
        {
          OFFSET 0 -5.6122 11.7359
          CHANNELS 3 Zrotation Xrotation Yrotation
          End Site
          {
            OFFSET 0 0 7.8731
          }
        }
      }
    }
  }
}
MOTION
Frames:	4
Frame Time:	0.0333333
5.84602e-005 68.8428 3.50346 0 0 -0 0 0 -0 0 0 -0 0 0 -0 0 0 -0 0 0 -0 0 0 -0 0 0 -0 0 0 -0 0 0 -0 0 0 -0 0 0 -0 0 0 -0 0 0 -0 -0.0146107 -8.87603e-005 -2.63497e-007 2.99804e-018 -2.42657e-020 -1.42182e-022 0 0 -0 -0.0187562 -0.001176 5.858e-005 5.06224e-018 3.88251e-019 1.21329e-020 0 0 -0 -0.012269 -0.00324817 0.000675346 -1.74678e-018 3.88251e-019 -0 0 0 -0 0 0 -0 0 0 -0 0 0 -0 0 0 -0 0 0 -0 0 0 -0 0 0 -0 0 0 -0 0 0 -0 0 0 -0 0.0149955 -9.10982e-005 2.64101e-007 -9.69331e-018 1.21329e-020 -4.7394e-023 0 0 -0 0.0189956 -0.00119102 -5.96516e-005 -5.41541e-019 0 2.42657e-020 0 0 -0 0.0122698 -0.00324857 -0.000673756 -2.00796e-019 0 -1.94126e-019 0 0 -0 0 0 -0 0 0 -0 3.39842 1.33031 -0.0637918 -5.65207e-008 0.834868 -0.000436188 -3.39935 -2.16518 -0.0642563 -8.89002e-024 -1.18485e-023 -1.48106e-024 -3.39844 1.35642 0.0640283 -3.18788e-007 0.782166 -0.000588827 3.39931 -2.13858 0.0634662 1.1399e-023 0 -0 
1.35504 11.5058 31.4848 -7.01671e-015 7.01671e-015 180 -0.000200385 -0.157441 -0.0899167 -0.000647856 -0.314882 -0.179835 -0.000647855 -0.314883 -0.179835 -0.120649 0.187464 0.000201968 -1.9011e-009 -0.1801 -1.16712e-007 -8.14982 -0.0493503 0.180773 -61.4149 0.327562 -46.0638 -4.19707 2.71945 -32.9036 -30.2433 -11.4069 18.3721 -4.03463e-007 4.50449e-007 5.93373e-007 4.03463e-007 -4.50449e-007 -5.93373e-007 4.03463e-007 -4.50449e-007 -5.93373e-007 -4.03463e-007 4.50449e-007 5.93373e-007 -0.0146084 -9.33143e-005 1.24961e-006 4.03476e-007 -4.50373e-007 -5.93431e-007 -4.03463e-007 4.50449e-007 5.93373e-007 -0.0187459 -0.00117358 5.63331e-005 4.03474e-007 -4.50351e-007 -5.93451e-007 -4.03463e-007 4.50449e-007 5.93373e-007 -0.0122826 -0.00325161 0.000673982 4.03455e-007 -4.50385e-007 -5.93434e-007 -4.03463e-007 4.50449e-007 5.93373e-007 4.03463e-007 -4.50449e-007 -5.93373e-007 4.03463e-007 -4.50449e-007 -5.93373e-007 8.14631 -0.0495363 -0.183862 61.4112 0.324021 46.0606 3.41441 3.65286 46.8908 30.2394 -11.4073 -18.3759 -1.85293e-006 -9.98328e-008 6.01431e-007 6.36111e-015 0 -4.77083e-015 -2.64834e-031 -3.18055e-015 -4.77083e-015 -1.85293e-006 -9.98328e-008 6.01431e-007 0.0149754 -9.35338e-005 -4.75533e-006 6.36111e-015 -9.54166e-015 -4.77083e-015 -1.85293e-006 -9.98328e-008 6.01431e-007 0.019009 -0.00119515 -6.36679e-005 3.53113e-031 3.18055e-015 -6.36111e-015 -1.85293e-006 -9.98328e-008 6.01431e-007 0.0122688 -0.00325183 -0.000669587 1.27222e-014 -6.36111e-015 -0 -1.85293e-006 -9.98328e-008 6.01431e-007 6.36111e-015 0 -4.77083e-015 -2.64834e-031 -3.18055e-015 -4.77083e-015 -33.952 -54.4281 -41.7486 -166.136 26.0172 167.458 -4.65343 54.2109 -19.0067 -7.95139e-016 9.54166e-015 -0 33.9303 -54.4348 41.7283 166.144 26.0183 -167.461 4.65255 54.2102 19.0027 8.09914e-007 -1.04343e-007 -2.36038e-007 
1.35504 11.5058 31.4848 -7.01671e-015 7.01671e-015 180 -0.000200385 -0.157441 -0.0899167 -0.000647856 -0.314882 -0.179835 -0.000647855 -0.314883 -0.179835 -0.120649 0.187464 0.000201968 -0.0835327 -0.361864 -0.0542657 -8.14982 -0.0493503 0.180773 -61.4149 0.327563 -46.0639 -4.20285 2.71054 -32.7816 -30.2433 -11.4069 18.3721 -1.22686e-006 3.27635e-006 -6.15363e-007 -1.54691e-006 2.82942e-006 -3.47081e-006 -8.24159e-007 2.82564e-006 -1.2091e-006 -1.22686e-006 3.27635e-006 -6.15363e-007 -0.014606 -8.98043e-005 -3.34864e-006 -1.93218e-006 1.35596e-006 -4.80331e-007 -1.22686e-006 3.27635e-006 -6.15363e-007 -0.0187566 -0.00118005 5.71395e-005 -8.23924e-007 2.82586e-006 -1.20863e-006 -1.22686e-006 3.27635e-006 -6.15363e-007 -0.0122649 -0.00324673 0.000676169 -8.24016e-007 2.82582e-006 -1.20878e-006 -1.22686e-006 3.27635e-006 -6.15363e-007 -1.54691e-006 2.82942e-006 -3.47081e-006 -8.24159e-007 2.82564e-006 -1.2091e-006 8.14631 -0.0495363 -0.183862 61.4112 0.324021 46.0606 3.41441 3.65286 46.8908 30.2394 -11.4073 -18.3759 -1.85293e-006 -9.98328e-008 6.01431e-007 6.36111e-015 0 -4.77083e-015 -2.64834e-031 -3.18055e-015 -4.77083e-015 -1.85293e-006 -9.98328e-008 6.01431e-007 0.0149754 -9.35338e-005 -4.75533e-006 6.36111e-015 -9.54166e-015 -4.77083e-015 -1.85293e-006 -9.98328e-008 6.01431e-007 0.019009 -0.00119515 -6.36679e-005 3.53113e-031 3.18055e-015 -6.36111e-015 -1.85293e-006 -9.98328e-008 6.01431e-007 0.0122688 -0.00325183 -0.000669587 1.27222e-014 -6.36111e-015 -0 -1.85293e-006 -9.98328e-008 6.01431e-007 6.36111e-015 0 -4.77083e-015 -2.64834e-031 -3.18055e-015 -4.77083e-015 -33.952 -54.4281 -41.7486 -166.136 26.0172 167.458 -4.65343 54.2109 -19.0067 -7.95139e-016 9.54166e-015 -0 33.9303 -54.4348 41.7283 166.144 26.0183 -167.461 4.65255 54.2102 19.0027 8.59286e-007 5.36953e-007 -1.98865e-006 
1.35504 11.5058 31.4848 -7.01671e-015 7.01671e-015 180 -0.000200385 -0.157441 -0.0899167 -0.000647856 -0.314882 -0.179835 -0.000647855 -0.314883 -0.179835 -0.120649 0.187464 0.000201968 -0.167268 -0.543606 -0.108816 -8.14982 -0.0493503 0.180773 -61.415 0.327558 -46.0638 -4.2086 2.70157 -32.6597 -30.2433 -11.4069 18.3721 3.18055e-015 6.36111e-015 -6.36111e-015 4.01943e-007 -4.50966e-007 -5.94094e-007 -4.01943e-007 4.50966e-007 5.94094e-007 3.18055e-015 6.36111e-015 -6.36111e-015 -0.0146159 -8.77729e-005 -1.97473e-006 -4.01956e-007 4.5089e-007 5.94152e-007 3.18055e-015 6.36111e-015 -6.36111e-015 -0.01873 -0.00118027 6.39212e-005 -4.01954e-007 4.50868e-007 5.94172e-007 3.18055e-015 6.36111e-015 -6.36111e-015 -0.0122565 -0.00324414 0.000680603 -1.51103e-006 -1.02585e-006 1.33341e-006 3.18055e-015 6.36111e-015 -6.36111e-015 4.01943e-007 -4.50966e-007 -5.94094e-007 -4.01943e-007 4.50966e-007 5.94094e-007 8.14631 -0.0495363 -0.183862 61.4112 0.324021 46.0606 3.41441 3.65286 46.8908 30.2394 -11.4073 -18.3759 -1.85293e-006 -9.98328e-008 6.01431e-007 6.36111e-015 0 -4.77083e-015 -2.64834e-031 -3.18055e-015 -4.77083e-015 -1.85293e-006 -9.98328e-008 6.01431e-007 0.0149754 -9.35338e-005 -4.75533e-006 6.36111e-015 -9.54166e-015 -4.77083e-015 -1.85293e-006 -9.98328e-008 6.01431e-007 0.019009 -0.00119515 -6.36679e-005 3.53113e-031 3.18055e-015 -6.36111e-015 -1.85293e-006 -9.98328e-008 6.01431e-007 0.0122688 -0.00325183 -0.000669587 1.27222e-014 -6.36111e-015 -0 -1.85293e-006 -9.98328e-008 6.01431e-007 6.36111e-015 0 -4.77083e-015 -2.64834e-031 -3.18055e-015 -4.77083e-015 -33.952 -54.4281 -41.7486 -166.136 26.0172 167.458 -4.65343 54.2109 -19.0067 -7.95139e-016 9.54166e-015 -0 33.9303 -54.4348 41.7283 166.144 26.0183 -167.461 4.65255 54.2102 19.0027 8.59286e-007 5.36953e-007 -1.98865e-006 
